<svg width="269" height="72" xmlns="http://www.w3.org/2000/svg" xmlns:xlink="http://www.w3.org/1999/xlink" xml:space="preserve" overflow="hidden"><defs><clipPath id="clip0"><rect x="495" y="304" width="269" height="72"/></clipPath></defs><g clip-path="url(#clip0)" transform="translate(-495 -304)"><path d="M78.8278 63.8484C78.8278 64.3253 78.9072 64.7372 79.0734 65.0696 79.2396 65.4092 79.4636 65.6838 79.7527 65.9006 80.0417 66.1173 80.3813 66.2763 80.7571 66.3702 81.1328 66.4714 81.5447 66.522 81.9927 66.522 82.4696 66.522 82.8815 66.4642 83.2139 66.3558 83.5535 66.2474 83.8281 66.1029 84.0377 65.9295 84.2472 65.756 84.399 65.5537 84.4929 65.3297 84.5868 65.1057 84.6302 64.8745 84.6302 64.636 84.6302 64.1591 84.5218 63.805 84.305 63.581 84.0882 63.357 83.857 63.1908 83.5969 63.0969 83.1561 62.9307 82.6358 62.7789 82.0505 62.6344 81.4652 62.4899 80.7354 62.302 79.8755 62.0636 79.3408 61.9263 78.8928 61.7384 78.5387 61.5144 78.1847 61.2904 77.9028 61.0303 77.6933 60.7557 77.4837 60.4739 77.332 60.1776 77.2453 59.8669 77.1586 59.549 77.1152 59.231 77.1152 58.9058 77.1152 58.2772 77.2453 57.7352 77.5054 57.2728 77.7655 56.8103 78.1124 56.4346 78.546 56.1311 78.9795 55.8276 79.4636 55.6036 80.0128 55.4591 80.562 55.3146 81.1112 55.2423 81.6748 55.2423 82.3251 55.2423 82.9393 55.329 83.5174 55.4952 84.0955 55.6614 84.6013 55.9143 85.0348 56.2539 85.4684 56.5935 85.8152 57.0054 86.0754 57.504 86.3283 58.0026 86.4584 58.5735 86.4584 59.2238L84.2761 59.2238C84.2183 58.4217 83.9437 57.8509 83.4524 57.5185 82.961 57.1861 82.3396 57.0199 81.5808 57.0199 81.3279 57.0199 81.0606 57.0488 80.7932 57.0994 80.5259 57.1499 80.2802 57.2367 80.0562 57.3595 79.8322 57.4823 79.6515 57.6485 79.507 57.8581 79.3625 58.0676 79.2902 58.3278 79.2902 58.6457 79.2902 59.0865 79.4275 59.4333 79.7021 59.6862 79.9767 59.9392 80.3308 60.127 80.7788 60.2571 80.8221 60.2716 81.01 60.3149 81.3279 60.4088 81.6459 60.4956 82.0072 60.5895 82.4046 60.6979 82.802 60.8063 83.185 60.9074 83.568 61.0014 83.951 61.0953 84.2183 61.1748 84.3773 61.2182 84.7819 61.3482 85.1432 61.5216 85.4467 61.7456 85.7502 61.9697 86.0031 62.2226 86.2054 62.5044 86.4078 62.7934 86.5595 63.0969 86.6607 63.4221 86.7618 63.7472 86.8124 64.0724 86.8124 64.3976 86.8124 65.0985 86.6679 65.691 86.3861 66.1896 86.0971 66.6882 85.7213 67.0928 85.2588 67.4035 84.7892 67.7215 84.2617 67.9455 83.6691 68.0972 83.0766 68.2418 82.4696 68.314 81.8482 68.314 81.1401 68.314 80.468 68.2273 79.8394 68.0539 79.2107 67.8805 78.6616 67.6131 78.1991 67.2518 77.7294 66.8905 77.3609 66.4281 77.0791 65.8644 76.7973 65.3008 76.6528 64.6288 76.6455 63.8628L78.8278 63.8628Z" transform="matrix(1 0 0 1.00575 495 304.001)"/><path d="M88.4888 58.9709 90.3748 58.9709 90.3748 60.1921 90.4109 60.1921C90.6928 59.6646 91.083 59.2888 91.5815 59.0648 92.0801 58.8408 92.6221 58.7252 93.2074 58.7252 93.9155 58.7252 94.537 58.848 95.0717 59.101 95.5992 59.3539 96.0399 59.6935 96.394 60.1343 96.7409 60.5678 97.0082 61.0809 97.1816 61.6662 97.3551 62.2515 97.4418 62.8729 97.4418 63.5377 97.4418 64.1447 97.3623 64.73 97.2033 65.3008 97.0444 65.8717 96.8059 66.3775 96.488 66.811 96.17 67.2446 95.7654 67.5987 95.274 67.8588 94.7826 68.1189 94.2046 68.249 93.547 68.249 93.258 68.249 92.9617 68.2201 92.6727 68.1695 92.3836 68.1189 92.1018 68.0322 91.8344 67.9166 91.5671 67.801 91.3214 67.6492 91.0902 67.4686 90.8662 67.2879 90.6711 67.0784 90.5193 66.8327L90.4832 66.8327 90.4832 71.3417 88.4888 71.3417 88.4888 58.9709ZM95.4474 63.4943C95.4474 63.0897 95.3968 62.6922 95.2884 62.302 95.1801 61.9191 95.0283 61.5794 94.8188 61.2832 94.6092 60.9869 94.3491 60.7485 94.0311 60.5678 93.7132 60.3872 93.3519 60.2932 92.9473 60.2932 92.109 60.2932 91.4732 60.5823 91.0541 61.1676 90.6277 61.7529 90.4182 62.526 90.4182 63.4943 90.4182 63.9496 90.476 64.3687 90.5844 64.7589 90.6928 65.1491 90.8589 65.4815 91.083 65.7633 91.307 66.0451 91.5671 66.2619 91.8778 66.4281 92.1885 66.5943 92.5426 66.6737 92.9545 66.6737 93.4097 66.6737 93.7927 66.5798 94.1106 66.3919 94.4286 66.204 94.6815 65.9656 94.891 65.6693 95.0934 65.3731 95.2379 65.0334 95.3246 64.6577 95.4113 64.2819 95.4547 63.8917 95.4547 63.4943Z" transform="matrix(1 0 0 1.00575 495 304.001)"/><path d="M99.1182 58.9709 100.99 58.9709 100.99 60.7196 101.026 60.7196C101.084 60.4739 101.199 60.2354 101.365 60.0042 101.532 59.773 101.741 59.5562 101.98 59.3683 102.218 59.1804 102.485 59.0215 102.775 58.9058 103.064 58.7902 103.36 58.7324 103.663 58.7324 103.895 58.7324 104.054 58.7324 104.147 58.7469 104.234 58.7613 104.328 58.7686 104.422 58.783L104.422 60.7051C104.285 60.6834 104.14 60.6618 103.996 60.6473 103.851 60.6329 103.707 60.6184 103.569 60.6184 103.23 60.6184 102.912 60.6834 102.616 60.8207 102.319 60.958 102.059 61.1531 101.835 61.4132 101.611 61.6734 101.438 61.9986 101.308 62.3815 101.178 62.7645 101.113 63.2125 101.113 63.7111L101.113 68.0105 99.1182 68.0105 99.1182 58.9781Z" transform="matrix(1 0 0 1.00575 495 304.001)"/><path d="M112.833 65.9945C112.833 66.2402 112.862 66.4136 112.927 66.522 112.992 66.6304 113.115 66.681 113.303 66.681L113.512 66.681C113.592 66.681 113.686 66.6665 113.794 66.6448L113.794 68.025C113.722 68.0467 113.635 68.0756 113.52 68.1045 113.411 68.1334 113.295 68.1623 113.18 68.184 113.064 68.2056 112.949 68.2273 112.833 68.2345 112.717 68.249 112.616 68.249 112.537 68.249 112.132 68.249 111.792 68.1695 111.525 68.0033 111.258 67.8371 111.084 67.5553 110.998 67.1434 110.6 67.5264 110.116 67.8082 109.538 67.9816 108.96 68.1551 108.404 68.2418 107.869 68.2418 107.464 68.2418 107.074 68.184 106.698 68.0756 106.322 67.9672 105.997 67.801 105.708 67.5842 105.419 67.3674 105.195 67.0928 105.029 66.7604 104.863 66.4281 104.776 66.0378 104.776 65.5971 104.776 65.0407 104.877 64.5854 105.08 64.2314 105.282 63.8845 105.549 63.6099 105.882 63.4076 106.214 63.2125 106.59 63.068 107.002 62.9813 107.414 62.8946 107.833 62.8295 108.252 62.7789 108.613 62.7067 108.96 62.6561 109.285 62.6272 109.61 62.5983 109.899 62.5477 110.152 62.4755 110.405 62.4032 110.6 62.2948 110.745 62.1503 110.889 62.0058 110.962 61.789 110.962 61.4927 110.962 61.2398 110.904 61.0303 110.781 60.8641 110.658 60.6979 110.506 60.575 110.326 60.4883 110.145 60.4016 109.943 60.3438 109.726 60.3149 109.502 60.286 109.292 60.2716 109.097 60.2716 108.541 60.2716 108.078 60.3872 107.717 60.6184 107.356 60.8496 107.153 61.2109 107.103 61.7023L105.109 61.7023C105.145 61.117 105.282 60.6329 105.528 60.2499 105.773 59.8669 106.084 59.5562 106.46 59.325 106.836 59.0937 107.269 58.9275 107.746 58.8336 108.223 58.7397 108.714 58.6963 109.213 58.6963 109.654 58.6963 110.094 58.7397 110.521 58.8336 110.954 58.9275 111.337 59.0793 111.684 59.2888 112.031 59.4984 112.306 59.773 112.515 60.0981 112.725 60.4305 112.833 60.8352 112.833 61.3121L112.833 65.9584ZM110.846 63.4799C110.542 63.675 110.167 63.7978 109.726 63.8412 109.285 63.8845 108.837 63.9423 108.396 64.0218 108.187 64.0579 107.984 64.1085 107.782 64.1736 107.587 64.2386 107.406 64.3253 107.255 64.4337 107.103 64.5421 106.98 64.6866 106.893 64.8672 106.807 65.0479 106.763 65.2647 106.763 65.5248 106.763 65.7488 106.828 65.9295 106.958 66.0812 107.088 66.233 107.24 66.3558 107.421 66.4425 107.601 66.5292 107.797 66.5943 108.013 66.6232 108.23 66.6521 108.425 66.6737 108.599 66.6737 108.823 66.6737 109.061 66.6448 109.314 66.587 109.567 66.5292 109.813 66.4281 110.037 66.2908 110.261 66.1535 110.456 65.9728 110.607 65.756 110.759 65.5393 110.831 65.2719 110.831 64.9612L110.831 63.4726Z" transform="matrix(1 0 0 1.00575 495 304.001)"/><path d="M113.989 58.9709 116.171 58.9709 118.534 65.7199 118.57 65.7199 120.861 58.9709 122.942 58.9709 119.43 68.4947C119.264 68.8993 119.105 69.2895 118.946 69.6653 118.787 70.041 118.599 70.3662 118.368 70.6552 118.137 70.9443 117.855 71.1683 117.523 71.3345 117.183 71.5007 116.757 71.5874 116.229 71.5874 115.76 71.5874 115.304 71.5512 114.849 71.479L114.849 69.8026C115.015 69.8242 115.167 69.8531 115.319 69.882 115.47 69.911 115.629 69.9254 115.788 69.9254 116.02 69.9254 116.215 69.8965 116.367 69.8387 116.518 69.7809 116.641 69.6942 116.742 69.5858 116.843 69.4774 116.923 69.3473 116.995 69.1956 117.067 69.0438 117.132 68.8704 117.19 68.6681L117.414 67.9672 113.989 58.9637Z" transform="matrix(1 0 0 1.00575 495 304.001)"/><path d="M129.193 55.5313 134.699 55.5313C135.588 55.5313 136.31 55.6614 136.867 55.9143 137.423 56.1672 137.856 56.4924 138.16 56.8754 138.463 57.2583 138.673 57.6774 138.781 58.1327 138.89 58.5879 138.948 59.007 138.948 59.39 138.948 59.773 138.89 60.1921 138.781 60.6401 138.673 61.0881 138.463 61.5072 138.16 61.8902 137.856 62.2731 137.423 62.5911 136.867 62.844 136.31 63.0969 135.588 63.2197 134.699 63.2197L131.375 63.2197 131.375 68.0105 129.193 68.0105 129.193 55.5313ZM131.375 61.4349 134.576 61.4349C134.822 61.4349 135.074 61.3988 135.327 61.3265 135.58 61.2543 135.819 61.1459 136.036 60.9869 136.252 60.8279 136.426 60.6184 136.563 60.3583 136.7 60.0981 136.765 59.7657 136.765 59.3683 136.765 58.9709 136.708 58.624 136.592 58.3567 136.476 58.0893 136.317 57.8725 136.122 57.7208 135.927 57.5618 135.696 57.4534 135.443 57.3956 135.19 57.3378 134.915 57.3089 134.619 57.3089L131.389 57.3089 131.389 61.4349Z" transform="matrix(1 0 0 1.00575 495 304.001)"/><path d="M148.139 65.9945C148.139 66.2402 148.168 66.4136 148.233 66.522 148.298 66.6304 148.421 66.681 148.609 66.681L148.818 66.681C148.898 66.681 148.992 66.6665 149.1 66.6448L149.1 68.025C149.028 68.0467 148.941 68.0756 148.825 68.1045 148.717 68.1334 148.601 68.1623 148.486 68.184 148.37 68.2056 148.255 68.2273 148.139 68.2345 148.023 68.249 147.922 68.249 147.843 68.249 147.438 68.249 147.098 68.1695 146.831 68.0033 146.564 67.8371 146.39 67.5553 146.304 67.1434 145.906 67.5264 145.422 67.8082 144.844 67.9816 144.266 68.1551 143.709 68.2418 143.175 68.2418 142.77 68.2418 142.38 68.184 142.004 68.0756 141.628 67.9672 141.303 67.801 141.014 67.5842 140.725 67.3674 140.501 67.0928 140.335 66.7604 140.169 66.4281 140.082 66.0378 140.082 65.5971 140.082 65.0407 140.183 64.5854 140.386 64.2314 140.588 63.8845 140.855 63.6099 141.188 63.4076 141.52 63.2125 141.896 63.068 142.308 62.9813 142.72 62.8946 143.139 62.8295 143.558 62.7789 143.919 62.7067 144.266 62.6561 144.591 62.6272 144.916 62.5983 145.205 62.5477 145.458 62.4755 145.711 62.4032 145.906 62.2948 146.051 62.1503 146.195 62.0058 146.267 61.789 146.267 61.4927 146.267 61.2398 146.21 61.0303 146.087 60.8641 145.964 60.6979 145.812 60.575 145.632 60.4883 145.451 60.4016 145.249 60.3438 145.032 60.3149 144.808 60.286 144.598 60.2716 144.403 60.2716 143.847 60.2716 143.384 60.3872 143.023 60.6184 142.662 60.8496 142.459 61.2109 142.409 61.7023L140.414 61.7023C140.451 61.117 140.588 60.6329 140.834 60.2499 141.079 59.8669 141.39 59.5562 141.766 59.325 142.141 59.0937 142.575 58.9275 143.052 58.8336 143.529 58.7397 144.02 58.6963 144.519 58.6963 144.96 58.6963 145.4 58.7397 145.827 58.8336 146.26 58.9275 146.643 59.0793 146.99 59.2888 147.337 59.4984 147.611 59.773 147.821 60.0981 148.031 60.4305 148.139 60.8352 148.139 61.3121L148.139 65.9584ZM146.145 63.4799C145.841 63.675 145.465 63.7978 145.025 63.8412 144.584 63.8845 144.136 63.9423 143.695 64.0218 143.485 64.0579 143.283 64.1085 143.081 64.1736 142.886 64.2386 142.705 64.3253 142.553 64.4337 142.402 64.5421 142.279 64.6866 142.192 64.8672 142.105 65.0479 142.062 65.2647 142.062 65.5248 142.062 65.7488 142.127 65.9295 142.257 66.0812 142.387 66.233 142.539 66.3558 142.72 66.4425 142.9 66.5292 143.095 66.5943 143.312 66.6232 143.529 66.6521 143.724 66.6737 143.897 66.6737 144.121 66.6737 144.36 66.6448 144.613 66.587 144.866 66.5292 145.111 66.4281 145.335 66.2908 145.559 66.1535 145.754 65.9728 145.906 65.756 146.058 65.5393 146.13 65.2719 146.13 64.9612L146.13 63.4726Z" transform="matrix(1 0 0 1.00575 495 304.001)"/><path d="M150.343 55.5313 152.337 55.5313 152.337 57.4173 150.343 57.4173 150.343 55.5313ZM150.343 58.9709 152.337 58.9709 152.337 68.0033 150.343 68.0033 150.343 58.9709Z" transform="matrix(1 0 0 1.00575 495 304.001)"/><path d="M154.498 58.9709 156.384 58.9709 156.384 60.3005 156.42 60.3366C156.723 59.838 157.121 59.4406 157.612 59.1588 158.104 58.8769 158.645 58.7324 159.238 58.7324 160.228 58.7324 161.008 58.9853 161.579 59.4984 162.15 60.0114 162.439 60.7774 162.439 61.8035L162.439 68.0105 160.445 68.0105 160.445 62.3309C160.423 61.6228 160.271 61.1025 159.99 60.7846 159.708 60.4667 159.274 60.3005 158.682 60.3005 158.342 60.3005 158.038 60.3583 157.771 60.4811 157.504 60.6039 157.273 60.7701 157.092 60.9869 156.904 61.2037 156.76 61.4566 156.658 61.7456 156.55 62.0347 156.499 62.3454 156.499 62.6706L156.499 68.0033 154.505 68.0033 154.505 58.9709Z" transform="matrix(1 0 0 1.00575 495 304.001)"/><path d="M163.624 58.9709 165.127 58.9709 165.127 56.2612 167.122 56.2612 167.122 58.9709 168.921 58.9709 168.921 60.4594 167.122 60.4594 167.122 65.2864C167.122 65.4959 167.129 65.6766 167.15 65.8283 167.165 65.98 167.208 66.1101 167.273 66.2113 167.338 66.3197 167.432 66.3919 167.562 66.4497 167.692 66.5003 167.866 66.5292 168.09 66.5292 168.227 66.5292 168.372 66.5292 168.509 66.522 168.646 66.522 168.791 66.4931 168.928 66.4642L168.928 68.0033C168.704 68.025 168.494 68.0467 168.278 68.0756 168.068 68.0972 167.851 68.1117 167.627 68.1117 167.1 68.1117 166.681 68.0611 166.363 67.96 166.045 67.8588 165.792 67.7143 165.611 67.5264 165.431 67.3385 165.308 67.0928 165.243 66.8038 165.178 66.5148 165.142 66.1824 165.127 65.8066L165.127 60.4739 163.624 60.4739 163.624 58.9853Z" transform="matrix(1 0 0 1.00575 495 304.001)"/><path d="M174.297 55.5313 184.399 55.5313 184.399 57.4173 180.432 57.4173 180.432 68.0105 178.249 68.0105 178.249 57.4173 174.297 57.4173 174.297 55.5313Z" transform="matrix(1 0 0 1.00575 495 304.001)"/><path d="M185.186 64.0074C185.186 64.3542 185.237 64.6938 185.338 65.019 185.439 65.3442 185.584 65.6332 185.786 65.8789 185.988 66.1246 186.234 66.3197 186.538 66.4642 186.841 66.6087 187.202 66.681 187.621 66.681 188.207 66.681 188.676 66.5581 189.031 66.3052 189.385 66.0523 189.652 65.6766 189.825 65.178L191.711 65.178C191.603 65.6693 191.422 66.1029 191.169 66.4859 190.917 66.8688 190.606 67.194 190.245 67.4541 189.883 67.7143 189.479 67.9166 189.031 68.0467 188.583 68.184 188.113 68.249 187.621 68.249 186.913 68.249 186.285 68.1334 185.736 67.9021 185.186 67.6709 184.724 67.3457 184.348 66.9266 183.972 66.5075 183.683 66.0089 183.488 65.4236 183.293 64.8383 183.199 64.2025 183.199 63.5015 183.199 62.8584 183.3 62.2515 183.503 61.6734 183.705 61.0953 184.001 60.5895 184.377 60.1559 184.753 59.7224 185.215 59.3755 185.75 59.1154 186.285 58.8625 186.892 58.7324 187.571 58.7324 188.279 58.7324 188.922 58.8842 189.486 59.1804 190.049 59.4767 190.519 59.8741 190.895 60.3583 191.271 60.8496 191.538 61.4132 191.704 62.0419 191.87 62.6778 191.914 63.3354 191.834 64.0074L185.194 64.0074ZM189.833 62.6922C189.811 62.3743 189.746 62.078 189.63 61.7818 189.522 61.4927 189.37 61.2398 189.175 61.023 188.98 60.8063 188.749 60.6329 188.474 60.4956 188.2 60.3583 187.896 60.2932 187.556 60.2932 187.217 60.2932 186.892 60.351 186.603 60.4739 186.314 60.5967 186.075 60.7629 185.866 60.9797 185.663 61.1965 185.497 61.4494 185.374 61.7384 185.251 62.0275 185.186 62.3454 185.172 62.685L189.818 62.685Z" transform="matrix(1 0 0 1.00575 495 304.001)"/><path d="M199.45 61.9913C199.371 61.4349 199.147 61.0086 198.778 60.7268 198.41 60.445 197.947 60.3005 197.391 60.3005 197.138 60.3005 196.863 60.3438 196.567 60.4305 196.278 60.5172 196.011 60.6834 195.765 60.9219 195.519 61.1603 195.317 61.4927 195.151 61.9191 194.985 62.3454 194.905 62.9018 194.905 63.5883 194.905 63.964 194.949 64.3325 195.035 64.7083 195.122 65.084 195.259 65.4164 195.454 65.7055 195.65 65.9945 195.895 66.233 196.199 66.4136 196.502 66.5943 196.871 66.6882 197.297 66.6882 197.882 66.6882 198.359 66.5075 198.742 66.1462 199.118 65.7849 199.356 65.2791 199.45 64.6288L201.445 64.6288C201.257 65.8066 200.816 66.7026 200.108 67.3313 199.4 67.9527 198.468 68.2634 197.304 68.2634 196.596 68.2634 195.967 68.1406 195.426 67.9021 194.884 67.6637 194.428 67.3385 194.053 66.9266 193.677 66.5148 193.395 66.0234 193.207 65.4526 193.019 64.8817 192.918 64.2603 192.918 63.6027 192.918 62.9451 193.012 62.2948 193.2 61.6951 193.388 61.0953 193.662 60.5823 194.038 60.1487 194.414 59.7152 194.876 59.3683 195.426 59.1154 195.982 58.8625 196.632 58.7397 197.377 58.7397 197.904 58.7397 198.403 58.8047 198.872 58.942 199.342 59.0793 199.761 59.2744 200.13 59.5417 200.498 59.8091 200.794 60.1487 201.033 60.5534 201.264 60.958 201.409 61.4422 201.452 62.0058L199.458 62.0058Z" transform="matrix(1 0 0 1.00575 495 304.001)"/><path d="M203.063 55.5313 205.058 55.5313 205.058 60.1632 205.094 60.1632C205.34 59.7585 205.701 59.4117 206.185 59.1371 206.669 58.8625 207.211 58.7252 207.804 58.7252 208.794 58.7252 209.574 58.9781 210.145 59.4912 210.716 60.0042 211.005 60.7701 211.005 61.7962L211.005 68.0033 209.01 68.0033 209.01 62.3237C208.989 61.6156 208.837 61.0953 208.555 60.7774 208.273 60.4594 207.84 60.2932 207.247 60.2932 206.908 60.2932 206.604 60.351 206.337 60.4739 206.069 60.5967 205.838 60.7629 205.657 60.9797 205.47 61.1965 205.325 61.4494 205.224 61.7384 205.115 62.0275 205.065 62.3382 205.065 62.6633L205.065 67.9961 203.071 67.9961 203.071 55.5169Z" transform="matrix(1 0 0 1.00575 495 304.001)"/><path d="M213.093 58.9709 214.979 58.9709 214.979 60.3005 215.015 60.3366C215.319 59.838 215.716 59.4406 216.207 59.1588 216.699 58.8769 217.241 58.7324 217.833 58.7324 218.823 58.7324 219.604 58.9853 220.174 59.4984 220.745 60.0114 221.034 60.7774 221.034 61.8035L221.034 68.0105 219.04 68.0105 219.04 62.3309C219.018 61.6228 218.866 61.1025 218.585 60.7846 218.303 60.4667 217.869 60.3005 217.277 60.3005 216.937 60.3005 216.634 60.3583 216.366 60.4811 216.099 60.6039 215.868 60.7701 215.687 60.9869 215.499 61.2037 215.355 61.4566 215.253 61.7456 215.145 62.0347 215.095 62.3454 215.095 62.6706L215.095 68.0033 213.1 68.0033 213.1 58.9709Z" transform="matrix(1 0 0 1.00575 495 304.001)"/><path d="M227.27 68.249C226.548 68.249 225.905 68.1261 225.341 67.8877 224.777 67.6492 224.3 67.3168 223.91 66.8977 223.52 66.4786 223.224 65.98 223.021 65.3947 222.819 64.8094 222.718 64.1736 222.718 63.4726 222.718 62.7717 222.819 62.1503 223.021 61.565 223.224 60.9797 223.52 60.4811 223.91 60.062 224.3 59.6429 224.777 59.3105 225.341 59.072 225.905 58.8336 226.548 58.7108 227.27 58.7108 227.993 58.7108 228.636 58.8336 229.2 59.072 229.763 59.3105 230.24 59.6429 230.63 60.062 231.02 60.4811 231.317 60.9797 231.519 61.565 231.721 62.1503 231.823 62.7862 231.823 63.4726 231.823 64.1591 231.721 64.8094 231.519 65.3947 231.317 65.98 231.02 66.4786 230.63 66.8977 230.24 67.3168 229.763 67.6492 229.2 67.8877 228.636 68.1261 227.993 68.249 227.27 68.249ZM227.27 66.681C227.711 66.681 228.094 66.587 228.426 66.3991 228.752 66.2113 229.019 65.9656 229.228 65.6621 229.438 65.3586 229.59 65.019 229.691 64.636 229.792 64.2603 229.843 63.8701 229.843 63.4726 229.843 63.0752 229.792 62.7067 229.691 62.3165 229.59 61.9335 229.438 61.5939 229.228 61.2904 229.019 60.9941 228.752 60.7485 228.426 60.5678 228.101 60.3799 227.718 60.286 227.27 60.286 226.822 60.286 226.439 60.3799 226.114 60.5678 225.789 60.7557 225.522 60.9941 225.312 61.2904 225.102 61.5867 224.951 61.9263 224.85 62.3165 224.748 62.6995 224.698 63.0824 224.698 63.4726 224.698 63.8628 224.748 64.253 224.85 64.636 224.951 65.0118 225.102 65.3586 225.312 65.6621 225.522 65.9656 225.789 66.2113 226.114 66.3991 226.439 66.587 226.822 66.681 227.27 66.681Z" transform="matrix(1 0 0 1.00575 495 304.001)"/><path d="M233.542 55.5313 235.537 55.5313 235.537 68.0105 233.542 68.0105 233.542 55.5313Z" transform="matrix(1 0 0 1.00575 495 304.001)"/><path d="M241.845 68.249C241.122 68.249 240.479 68.1261 239.916 67.8877 239.352 67.6492 238.875 67.3168 238.485 66.8977 238.095 66.4786 237.798 65.98 237.596 65.3947 237.394 64.8094 237.293 64.1736 237.293 63.4726 237.293 62.7717 237.394 62.1503 237.596 61.565 237.798 60.9797 238.095 60.4811 238.485 60.062 238.875 59.6429 239.352 59.3105 239.916 59.072 240.479 58.8336 241.122 58.7108 241.845 58.7108 242.568 58.7108 243.211 58.8336 243.774 59.072 244.338 59.3105 244.815 59.6429 245.205 60.062 245.595 60.4811 245.891 60.9797 246.094 61.565 246.296 62.1503 246.397 62.7862 246.397 63.4726 246.397 64.1591 246.296 64.8094 246.094 65.3947 245.891 65.98 245.595 66.4786 245.205 66.8977 244.815 67.3168 244.338 67.6492 243.774 67.8877 243.211 68.1261 242.568 68.249 241.845 68.249ZM241.845 66.681C242.286 66.681 242.669 66.587 243.001 66.3991 243.326 66.2113 243.594 65.9656 243.803 65.6621 244.013 65.3586 244.164 65.019 244.266 64.636 244.367 64.2603 244.417 63.8701 244.417 63.4726 244.417 63.0752 244.367 62.7067 244.266 62.3165 244.164 61.9335 244.013 61.5939 243.803 61.2904 243.594 60.9941 243.326 60.7485 243.001 60.5678 242.676 60.3799 242.293 60.286 241.845 60.286 241.397 60.286 241.014 60.3799 240.689 60.5678 240.364 60.7557 240.096 60.9941 239.887 61.2904 239.677 61.5867 239.525 61.9263 239.424 62.3165 239.323 62.6995 239.273 63.0824 239.273 63.4726 239.273 63.8628 239.323 64.253 239.424 64.636 239.525 65.0118 239.677 65.3586 239.887 65.6621 240.096 65.9656 240.364 66.2113 240.689 66.3991 241.014 66.587 241.397 66.681 241.845 66.681Z" transform="matrix(1 0 0 1.00575 495 304.001)"/><path d="M256.42 67.5336C256.42 68.8993 256.037 69.911 255.278 70.583 254.512 71.255 253.414 71.5874 251.983 71.5874 251.528 71.5874 251.072 71.544 250.61 71.4501 250.148 71.3561 249.728 71.1972 249.353 70.9804 248.977 70.7564 248.659 70.4673 248.399 70.106 248.146 69.7448 247.994 69.304 247.944 68.7765L249.938 68.7765C249.996 69.0583 250.097 69.2823 250.234 69.4557 250.372 69.6291 250.538 69.7664 250.733 69.8676 250.928 69.9688 251.137 70.0338 251.369 70.0627 251.6 70.0916 251.846 70.106 252.106 70.106 252.908 70.106 253.5 69.911 253.869 69.5135 254.245 69.1161 254.425 68.5452 254.425 67.801L254.425 66.4208 254.389 66.4208C254.107 66.9194 253.724 67.3096 253.247 67.5914 252.763 67.8732 252.243 68.0105 251.687 68.0105 250.964 68.0105 250.35 67.8877 249.844 67.6348 249.338 67.3819 248.919 67.0423 248.587 66.6015 248.254 66.1679 248.016 65.6621 247.864 65.0913 247.712 64.5204 247.64 63.9062 247.64 63.2559 247.64 62.6489 247.734 62.0708 247.922 61.5289 248.11 60.9797 248.377 60.5028 248.724 60.0837 249.071 59.6718 249.504 59.3394 250.01 59.0937 250.516 58.848 251.094 58.7252 251.73 58.7252 252.301 58.7252 252.828 58.848 253.305 59.0865 253.782 59.325 254.151 59.7007 254.404 60.2137L254.44 60.2137 254.44 58.9709 256.434 58.9709 256.434 67.5336ZM251.997 66.4353C252.438 66.4353 252.814 66.3486 253.125 66.1607 253.435 65.98 253.681 65.7416 253.876 65.4453 254.071 65.1491 254.209 64.8094 254.295 64.4337 254.382 64.0579 254.425 63.675 254.425 63.292 254.425 62.909 254.382 62.5333 254.288 62.172 254.194 61.8107 254.05 61.4927 253.862 61.2109 253.667 60.9291 253.421 60.7123 253.11 60.5461 252.799 60.3799 252.431 60.3005 251.997 60.3005 251.564 60.3005 251.181 60.3944 250.877 60.5823 250.574 60.7701 250.328 61.0086 250.14 61.3049 249.952 61.6011 249.822 61.9407 249.736 62.3165 249.656 62.6922 249.613 63.068 249.613 63.4437 249.613 63.8195 249.656 64.1808 249.75 64.5349 249.844 64.8889 249.989 65.2069 250.176 65.4887 250.372 65.7705 250.61 65.9945 250.913 66.1679 251.217 66.3413 251.571 66.4281 251.99 66.4281Z" transform="matrix(1 0 0 1.00575 495 304.001)"/><path d="M257.431 58.9709 259.614 58.9709 261.976 65.7199 262.013 65.7199 264.303 58.9709 266.384 58.9709 262.872 68.4947C262.706 68.8993 262.547 69.2895 262.388 69.6653 262.229 70.041 262.041 70.3662 261.81 70.6552 261.579 70.9443 261.297 71.1683 260.965 71.3345 260.625 71.5007 260.199 71.5874 259.671 71.5874 259.202 71.5874 258.746 71.5512 258.291 71.479L258.291 69.8026C258.457 69.8242 258.609 69.8531 258.761 69.882 258.913 69.911 259.072 69.9254 259.231 69.9254 259.462 69.9254 259.657 69.8965 259.809 69.8387 259.96 69.7809 260.083 69.6942 260.184 69.5858 260.286 69.4774 260.365 69.3473 260.437 69.1956 260.51 69.0438 260.575 68.8704 260.632 68.6681L260.856 67.9672 257.431 58.9637Z" transform="matrix(1 0 0 1.00575 495 304.001)"/><path d="M241.816 8.32428C241.563 8.43267 241.108 8.48325 240.443 8.48325L239.554 8.48325 239.554 6.73457 240.942 6.73457C241.78 6.73457 242.192 7.00916 242.192 7.55833 242.192 7.94853 242.069 8.20144 241.823 8.31706M242.893 7.57278C242.893 7.34155 242.842 7.12477 242.748 6.92245 242.647 6.72012 242.503 6.56115 242.329 6.45999 242.054 6.28657 241.635 6.19986 241.086 6.19986L238.882 6.19986 238.882 11.3447 239.562 11.3447 239.562 9.01075 240.58 9.01075 242.033 11.3447 242.828 11.3447 241.296 9.01075C241.78 8.99629 242.156 8.86623 242.452 8.635 242.748 8.40377 242.9 8.04247 242.9 7.55833M243.312 11.6121C242.604 12.378 241.729 12.761 240.674 12.761 239.619 12.761 238.738 12.378 238.03 11.6121 237.329 10.8534 236.967 9.90676 236.967 8.77952 236.967 7.65227 237.329 6.76348 238.051 5.9903 238.767 5.20268 239.634 4.8197 240.682 4.8197 241.729 4.8197 242.596 5.20268 243.312 5.9903 244.027 6.76348 244.381 7.69562 244.381 8.77952 244.381 9.86341 244.027 10.8534 243.319 11.6121M243.745 5.52784C242.893 4.63183 241.881 4.18382 240.682 4.18382 239.482 4.18382 238.47 4.63183 237.611 5.52784 236.765 6.43109 236.346 7.51498 236.346 8.77229 236.346 10.0296 236.772 11.1424 237.611 12.0384 238.47 12.9417 239.482 13.3897 240.682 13.3897 241.881 13.3897 242.9 12.9417 243.745 12.0384 244.584 11.1424 245.01 10.0513 245.01 8.77229 245.01 7.4933 244.584 6.43109 243.745 5.52784M221.728 5.14487C214.625 5.14487 210.181 7.94853 206.763 14.264L206.655 14.264 208.801 6.31547 192.557 6.31547 183.546 40.1545 200.13 40.1545 203.706 26.4542C205.036 21.3093 206.575 20.3555 209.697 20.3555 211.474 20.3555 212.985 21.0564 212.985 23.1953 212.985 24.4887 212.038 27.9066 211.474 29.9443L208.62 40.1618 225.522 40.1618 231.064 19.9147C231.75 17.5807 232.299 15.2178 232.299 12.9706 232.299 7.11032 227.321 5.14487 221.728 5.14487M101.084 20.3627C102.594 20.3627 104.538 20.9697 104.538 22.8267 104.538 23.8311 103.743 26.1868 103.266 27.9788L99.7902 40.1618 115.687 40.1618 119.055 27.4802C120.384 22.2198 121.157 20.3627 125.095 20.3627 126.591 20.3627 128.549 20.9697 128.549 22.8267 128.549 23.8311 127.755 26.1868 127.27 27.9788L123.802 40.1618 140.075 40.1618 145.74 18.9175C146.224 17.0099 146.853 14.423 146.853 12.4647 146.853 7.60891 142.271 5.13764 136.787 5.13764 130.183 5.13764 125.262 8.50493 122.957 14.2568L122.848 14.2568C122.848 6.91522 119.777 5.13764 112.884 5.13764 105.99 5.13764 101.647 8.26647 98.6052 14.2568L98.4968 14.2568 100.961 6.30824 84.7964 6.30824 75.7206 40.1473 91.6755 40.1473 95.0355 27.4658C96.3868 22.2053 97.16 20.3482 101.098 20.3482M173.032 31.7291C170.034 31.7291 168.559 31.1149 168.559 29.6047 168.559 28.7087 169.058 27.0395 169.347 26.0134L171.255 18.9609 185.114 18.9609 188.604 6.32992 174.543 6.32992 176.342 0.209552 166.941 0.209552C164.137 2.74586 155.697 9.52379 150.646 12.3275L149.078 18.9536 154.902 18.9536 151.557 31.2883C151.037 33.1092 150.748 34.923 150.748 36.3609 150.748 41.1806 157.309 41.3396 161.175 41.3396 165.814 41.3396 172.266 40.4942 176.891 39.6487L181.133 30.6018C178.625 31.0354 176.038 31.7146 173.018 31.7146" fill="#1D1D1B" transform="matrix(1 0 0 1.00575 495 304.001)"/><path d="M25.4425 53.0528C23.9179 53.0528 22.675 52.5976 21.3021 51.8678 19.8135 51.1235 18.325 50.148 16.5185 49.3532L16.3017 49.2809C15.3912 49.0786 14.6108 49.4182 14.0906 49.9457 13.5992 50.4154 13.3174 51.0585 13.1079 51.5787 12.7032 52.6915 12.5515 54.0139 12.472 54.8087L12.4142 55.3001 12.7032 55.6686C18.166 63.3281 31.5195 66.6737 36.8089 65.4236 44.5046 63.5955 57.728 54.8738 62.5405 46.0509 63.1836 44.8803 64.6938 41.7081 65.4887 39.3019 65.691 38.6588 65.8572 38.0662 65.9511 37.5821 66.0523 37.1052 66.1173 36.4621 65.9078 35.8912 65.5898 34.9446 64.6432 34.6267 63.8339 34.8579 63.2559 35.0386 62.6995 35.4505 62.1431 35.9201 56.767 40.4219 40.8193 53.0456 25.4498 53.0456" fill="#1D1D1B" transform="matrix(1 0 0 1.00575 495 304.001)"/><path d="M8.13641 52.2797C8.54106 52.0918 8.79397 51.7738 8.93849 51.5498 9.09023 51.3258 9.21307 51.0585 9.33591 50.8417 9.53824 50.4009 9.75502 49.8734 10.0152 49.317 10.2681 48.8112 10.5354 48.356 10.8461 47.9947 11.9951 46.6434 12.6671 46.2894 13.2957 46.1521 14.4591 45.9281 15.6153 45.1549 15.3262 43.7386 15.2395 43.2834 15.0372 42.9076 14.871 42.6908 14.7192 42.4524 14.553 42.2862 14.4302 42.1344 11.1713 38.283 6.74903 26.5987 6.74903 19.0765 6.74903 16.8003 5.0148 15.3045 3.43955 17.5735 2.78199 18.4695 2.15333 19.9725 1.87874 20.8685-1.16338 30.8475-0.92492 43.0016 5.78798 51.5354 6.14205 51.9906 7.02361 52.8361 8.13641 52.2869" fill="#1D1D1B" transform="matrix(1 0 0 1.00575 495 304.001)"/><path d="M19.5606 42.6619C23.2242 48.1031 24.3948 49.1147 32.3867 47.2938 37.6327 46.0943 45.4222 41.3613 52.2363 37.1775 59.9175 32.495 63.003 28.1161 63.5015 23.6866 63.74 21.5188 63.3137 19.4595 62.6706 17.5301 62.0491 15.6875 61.1603 13.8666 60.3655 12.0529 58.8336 8.54106 52.4603-0.455234 34.1642 0.0144519 17.0026 0.491364 8.60609 7.50775 11.7783 23.7228 12.8766 29.3229 17.4145 39.4825 19.5606 42.6619" fill="#1D1D1B" transform="matrix(1 0 0 1.00575 495 304.001)"/><path d="M75.1787 47.8357 269 47.8357 269 48.8546 75.1786 48.8546Z" fill="#1D1D1B" transform="matrix(1 0 0 1.00575 495 304.001)"/></g></svg>